<mxfile host="app.diagrams.net" modified="2022-05-18T03:38:32.707Z" agent="5.0 (Windows NT 10.0; Win64; x64) AppleWebKit/537.36 (KHTML, like Gecko) Chrome/97.0.4692.99 Safari/537.36" etag="rEP0J6atgs55sditJzRp" version="18.0.7" type="github">
  <diagram id="C5RBs43oDa-KdzZeNtuy" name="Page-1">
    <mxGraphModel dx="2125" dy="1893" grid="1" gridSize="10" guides="1" tooltips="1" connect="1" arrows="1" fold="1" page="1" pageScale="1" pageWidth="827" pageHeight="1169" math="1" shadow="0">
      <root>
        <mxCell id="WIyWlLk6GJQsqaUBKTNV-0" />
        <mxCell id="WIyWlLk6GJQsqaUBKTNV-1" parent="WIyWlLk6GJQsqaUBKTNV-0" />
        <mxCell id="pW2KVy_OPlrl6YSBeUSY-0" value="" style="rounded=0;whiteSpace=wrap;html=1;sketch=1;fontColor=#1A1A1A;strokeColor=#909090;fillColor=none;dashed=1;strokeWidth=2;" vertex="1" parent="WIyWlLk6GJQsqaUBKTNV-1">
          <mxGeometry x="420" y="-40" width="310" height="720" as="geometry" />
        </mxCell>
        <mxCell id="pW2KVy_OPlrl6YSBeUSY-1" value="" style="rounded=0;whiteSpace=wrap;html=1;sketch=1;fontColor=#1A1A1A;strokeColor=#909090;fillColor=none;dashed=1;strokeWidth=2;" vertex="1" parent="WIyWlLk6GJQsqaUBKTNV-1">
          <mxGeometry y="-40" width="400" height="720" as="geometry" />
        </mxCell>
        <mxCell id="pW2KVy_OPlrl6YSBeUSY-2" value="" style="rounded=0;whiteSpace=wrap;html=1;sketch=1;fontColor=#1A1A1A;strokeColor=#909090;fillColor=none;dashed=1;strokeWidth=2;" vertex="1" parent="WIyWlLk6GJQsqaUBKTNV-1">
          <mxGeometry x="792.75" y="-40" width="201.5" height="720" as="geometry" />
        </mxCell>
        <mxCell id="pW2KVy_OPlrl6YSBeUSY-3" style="edgeStyle=orthogonalEdgeStyle;curved=0;rounded=1;sketch=1;orthogonalLoop=1;jettySize=auto;html=1;entryX=0.5;entryY=0;entryDx=0;entryDy=0;fontColor=#1A1A1A;strokeColor=#182E3E;" edge="1" parent="WIyWlLk6GJQsqaUBKTNV-1" source="pW2KVy_OPlrl6YSBeUSY-4" target="pW2KVy_OPlrl6YSBeUSY-6">
          <mxGeometry relative="1" as="geometry" />
        </mxCell>
        <mxCell id="pW2KVy_OPlrl6YSBeUSY-4" value="开始" style="rounded=1;whiteSpace=wrap;html=1;fontSize=12;glass=0;strokeWidth=1;shadow=0;sketch=1;fillColor=#F5AB50;strokeColor=#909090;fontColor=#1A1A1A;" vertex="1" parent="WIyWlLk6GJQsqaUBKTNV-1">
          <mxGeometry x="160" y="80" width="80" height="40" as="geometry" />
        </mxCell>
        <mxCell id="pW2KVy_OPlrl6YSBeUSY-5" value="" style="edgeStyle=orthogonalEdgeStyle;curved=0;rounded=1;sketch=1;orthogonalLoop=1;jettySize=auto;html=1;fontColor=#1A1A1A;strokeColor=#182E3E;entryX=0.5;entryY=0;entryDx=0;entryDy=0;" edge="1" parent="WIyWlLk6GJQsqaUBKTNV-1" source="pW2KVy_OPlrl6YSBeUSY-6" target="pW2KVy_OPlrl6YSBeUSY-8">
          <mxGeometry relative="1" as="geometry">
            <mxPoint x="200" y="300" as="targetPoint" />
          </mxGeometry>
        </mxCell>
        <mxCell id="pW2KVy_OPlrl6YSBeUSY-6" value="$$D,N,pop,t\_max,\alpha ,\beta ,\gamma&amp;nbsp;$$" style="shape=parallelogram;perimeter=parallelogramPerimeter;whiteSpace=wrap;html=1;fixedSize=1;rounded=0;sketch=1;fontColor=#1A1A1A;strokeColor=#909090;fillColor=#F5AB50;" vertex="1" parent="WIyWlLk6GJQsqaUBKTNV-1">
          <mxGeometry x="100" y="160" width="200" height="60" as="geometry" />
        </mxCell>
        <mxCell id="pW2KVy_OPlrl6YSBeUSY-7" value="" style="edgeStyle=orthogonalEdgeStyle;curved=0;rounded=1;sketch=1;orthogonalLoop=1;jettySize=auto;html=1;fontColor=#1A1A1A;strokeColor=#182E3E;" edge="1" parent="WIyWlLk6GJQsqaUBKTNV-1" source="pW2KVy_OPlrl6YSBeUSY-8" target="pW2KVy_OPlrl6YSBeUSY-10">
          <mxGeometry relative="1" as="geometry">
            <mxPoint x="200" y="360" as="targetPoint" />
          </mxGeometry>
        </mxCell>
        <mxCell id="pW2KVy_OPlrl6YSBeUSY-8" value="将D划分成&lt;br&gt;$$D_{tra},D_{val},D_{tes}$$" style="whiteSpace=wrap;html=1;rounded=0;fontColor=#1A1A1A;strokeColor=#909090;fillColor=#F5AB50;sketch=1;" vertex="1" parent="WIyWlLk6GJQsqaUBKTNV-1">
          <mxGeometry x="140" y="260" width="120" height="60" as="geometry" />
        </mxCell>
        <mxCell id="pW2KVy_OPlrl6YSBeUSY-9" style="edgeStyle=orthogonalEdgeStyle;curved=0;rounded=1;sketch=1;orthogonalLoop=1;jettySize=auto;html=1;entryX=0.5;entryY=0;entryDx=0;entryDy=0;fontColor=#1A1A1A;strokeColor=#182E3E;" edge="1" parent="WIyWlLk6GJQsqaUBKTNV-1" source="pW2KVy_OPlrl6YSBeUSY-10" target="pW2KVy_OPlrl6YSBeUSY-12">
          <mxGeometry relative="1" as="geometry" />
        </mxCell>
        <mxCell id="pW2KVy_OPlrl6YSBeUSY-10" value="基于&lt;i&gt;D&lt;sub&gt;tra&lt;/sub&gt;&lt;/i&gt;，利用&lt;i&gt;BRFS&lt;/i&gt;训练N个基分类器，得到&lt;br&gt;$$C=\left \{ c_1,c_2,...,c_N \right \} ,NS=\left \{ s_1,s_2,...,s_N\right \}$$" style="shape=process;whiteSpace=wrap;html=1;backgroundOutline=1;rounded=0;sketch=1;fontColor=#1A1A1A;strokeColor=#909090;fillColor=#F5AB50;" vertex="1" parent="WIyWlLk6GJQsqaUBKTNV-1">
          <mxGeometry x="17.5" y="360" width="365" height="70" as="geometry" />
        </mxCell>
        <mxCell id="pW2KVy_OPlrl6YSBeUSY-11" style="edgeStyle=orthogonalEdgeStyle;curved=0;rounded=1;sketch=1;orthogonalLoop=1;jettySize=auto;html=1;entryX=0;entryY=0.5;entryDx=0;entryDy=0;fontColor=#1A1A1A;strokeColor=#182E3E;" edge="1" parent="WIyWlLk6GJQsqaUBKTNV-1" source="pW2KVy_OPlrl6YSBeUSY-12" target="pW2KVy_OPlrl6YSBeUSY-14">
          <mxGeometry relative="1" as="geometry" />
        </mxCell>
        <mxCell id="pW2KVy_OPlrl6YSBeUSY-12" value="对&lt;i&gt;D&lt;sub&gt;val&lt;/sub&gt;&lt;/i&gt;和&lt;i&gt;D&lt;sub&gt;tes&lt;/sub&gt;&lt;/i&gt;分类，计作&lt;br&gt;$$PL_{val}=\left \{ pl_1,pl_2,...,pl_N \right \} ,PL_{tes}$$" style="shape=process;whiteSpace=wrap;html=1;backgroundOutline=1;rounded=0;sketch=1;fontColor=#1A1A1A;strokeColor=#909090;fillColor=#F5AB50;" vertex="1" parent="WIyWlLk6GJQsqaUBKTNV-1">
          <mxGeometry x="55" y="470" width="290" height="70" as="geometry" />
        </mxCell>
        <mxCell id="pW2KVy_OPlrl6YSBeUSY-13" style="edgeStyle=orthogonalEdgeStyle;curved=0;rounded=1;sketch=1;orthogonalLoop=1;jettySize=auto;html=1;fontColor=#1A1A1A;strokeColor=#182E3E;" edge="1" parent="WIyWlLk6GJQsqaUBKTNV-1" source="pW2KVy_OPlrl6YSBeUSY-14" target="pW2KVy_OPlrl6YSBeUSY-16">
          <mxGeometry relative="1" as="geometry" />
        </mxCell>
        <mxCell id="pW2KVy_OPlrl6YSBeUSY-14" value="每只蜻蜓的位置向量&lt;br&gt;$$迭代次数\space t=1$$" style="shape=hexagon;perimeter=hexagonPerimeter2;whiteSpace=wrap;html=1;fixedSize=1;rounded=0;sketch=1;fontColor=#1A1A1A;strokeColor=#909090;fillColor=#F5AB50;" vertex="1" parent="WIyWlLk6GJQsqaUBKTNV-1">
          <mxGeometry x="490" y="-20" width="160" height="70" as="geometry" />
        </mxCell>
        <mxCell id="pW2KVy_OPlrl6YSBeUSY-15" value="" style="edgeStyle=orthogonalEdgeStyle;curved=0;rounded=1;sketch=1;orthogonalLoop=1;jettySize=auto;html=1;fontColor=#1A1A1A;strokeColor=#182E3E;" edge="1" parent="WIyWlLk6GJQsqaUBKTNV-1" source="pW2KVy_OPlrl6YSBeUSY-16" target="pW2KVy_OPlrl6YSBeUSY-18">
          <mxGeometry relative="1" as="geometry" />
        </mxCell>
        <mxCell id="pW2KVy_OPlrl6YSBeUSY-16" value="$$根据\space PL_{val},D_{val},NS$$&lt;br&gt;计算每只蜻蜓适应度" style="shape=process;whiteSpace=wrap;html=1;backgroundOutline=1;rounded=0;sketch=1;fontColor=#1A1A1A;strokeColor=#909090;fillColor=#F5AB50;" vertex="1" parent="WIyWlLk6GJQsqaUBKTNV-1">
          <mxGeometry x="475" y="80" width="190" height="90" as="geometry" />
        </mxCell>
        <mxCell id="pW2KVy_OPlrl6YSBeUSY-17" value="" style="edgeStyle=orthogonalEdgeStyle;curved=0;rounded=1;sketch=1;orthogonalLoop=1;jettySize=auto;html=1;fontColor=#1A1A1A;strokeColor=#182E3E;" edge="1" parent="WIyWlLk6GJQsqaUBKTNV-1" source="pW2KVy_OPlrl6YSBeUSY-18" target="pW2KVy_OPlrl6YSBeUSY-20">
          <mxGeometry relative="1" as="geometry" />
        </mxCell>
        <mxCell id="pW2KVy_OPlrl6YSBeUSY-18" value="计算5个位置影响因素&lt;br&gt;并计算对应的步长向量" style="shape=process;whiteSpace=wrap;html=1;backgroundOutline=1;rounded=0;sketch=1;fontColor=#1A1A1A;strokeColor=#909090;fillColor=#F5AB50;" vertex="1" parent="WIyWlLk6GJQsqaUBKTNV-1">
          <mxGeometry x="475" y="200" width="190" height="60" as="geometry" />
        </mxCell>
        <mxCell id="pW2KVy_OPlrl6YSBeUSY-19" value="" style="edgeStyle=orthogonalEdgeStyle;curved=0;rounded=1;sketch=1;orthogonalLoop=1;jettySize=auto;html=1;fontColor=#1A1A1A;strokeColor=#182E3E;" edge="1" parent="WIyWlLk6GJQsqaUBKTNV-1" source="pW2KVy_OPlrl6YSBeUSY-20" target="pW2KVy_OPlrl6YSBeUSY-25">
          <mxGeometry relative="1" as="geometry" />
        </mxCell>
        <mxCell id="pW2KVy_OPlrl6YSBeUSY-20" value="计算蜻蜓位置改变可能性&lt;br&gt;并更新位置向量&lt;br&gt;$$迭代次数\space t=t+1$$" style="shape=process;whiteSpace=wrap;html=1;backgroundOutline=1;rounded=0;sketch=1;fontColor=#1A1A1A;strokeColor=#909090;fillColor=#F5AB50;" vertex="1" parent="WIyWlLk6GJQsqaUBKTNV-1">
          <mxGeometry x="475" y="300" width="190" height="80" as="geometry" />
        </mxCell>
        <mxCell id="pW2KVy_OPlrl6YSBeUSY-21" style="edgeStyle=orthogonalEdgeStyle;curved=0;rounded=1;sketch=1;orthogonalLoop=1;jettySize=auto;html=1;entryX=1;entryY=0.5;entryDx=0;entryDy=0;fontColor=#1A1A1A;strokeColor=#182E3E;exitX=1;exitY=0.5;exitDx=0;exitDy=0;" edge="1" parent="WIyWlLk6GJQsqaUBKTNV-1" source="pW2KVy_OPlrl6YSBeUSY-25" target="pW2KVy_OPlrl6YSBeUSY-16">
          <mxGeometry relative="1" as="geometry">
            <Array as="points">
              <mxPoint x="700" y="460" />
              <mxPoint x="700" y="125" />
            </Array>
          </mxGeometry>
        </mxCell>
        <mxCell id="pW2KVy_OPlrl6YSBeUSY-22" value="否" style="edgeLabel;html=1;align=center;verticalAlign=middle;resizable=0;points=[];fontColor=#1A1A1A;" vertex="1" connectable="0" parent="pW2KVy_OPlrl6YSBeUSY-21">
          <mxGeometry x="0.132" y="1" relative="1" as="geometry">
            <mxPoint as="offset" />
          </mxGeometry>
        </mxCell>
        <mxCell id="pW2KVy_OPlrl6YSBeUSY-23" value="" style="edgeStyle=orthogonalEdgeStyle;curved=0;rounded=1;sketch=1;orthogonalLoop=1;jettySize=auto;html=1;fontColor=#1A1A1A;strokeColor=#182E3E;" edge="1" parent="WIyWlLk6GJQsqaUBKTNV-1" source="pW2KVy_OPlrl6YSBeUSY-25" target="pW2KVy_OPlrl6YSBeUSY-27">
          <mxGeometry relative="1" as="geometry" />
        </mxCell>
        <mxCell id="pW2KVy_OPlrl6YSBeUSY-24" value="是" style="edgeLabel;html=1;align=center;verticalAlign=middle;resizable=0;points=[];fontColor=#1A1A1A;" vertex="1" connectable="0" parent="pW2KVy_OPlrl6YSBeUSY-23">
          <mxGeometry x="-0.325" y="1" relative="1" as="geometry">
            <mxPoint as="offset" />
          </mxGeometry>
        </mxCell>
        <mxCell id="pW2KVy_OPlrl6YSBeUSY-25" value="$$t=t_{max}$$" style="rhombus;whiteSpace=wrap;html=1;rounded=0;fontColor=#1A1A1A;strokeColor=#909090;fillColor=#F5AB50;sketch=1;" vertex="1" parent="WIyWlLk6GJQsqaUBKTNV-1">
          <mxGeometry x="505" y="420" width="130" height="80" as="geometry" />
        </mxCell>
        <mxCell id="pW2KVy_OPlrl6YSBeUSY-26" value="" style="edgeStyle=orthogonalEdgeStyle;curved=0;rounded=1;sketch=1;orthogonalLoop=1;jettySize=auto;html=1;fontColor=#1A1A1A;strokeColor=#182E3E;entryX=0;entryY=0.5;entryDx=0;entryDy=0;" edge="1" parent="WIyWlLk6GJQsqaUBKTNV-1" source="pW2KVy_OPlrl6YSBeUSY-27" target="pW2KVy_OPlrl6YSBeUSY-35">
          <mxGeometry relative="1" as="geometry">
            <mxPoint x="827" y="210" as="targetPoint" />
          </mxGeometry>
        </mxCell>
        <mxCell id="pW2KVy_OPlrl6YSBeUSY-27" value="记录最优位置向量&lt;br&gt;选向量中值为1的基分类器构成子集M" style="whiteSpace=wrap;html=1;rounded=0;fontColor=#1A1A1A;strokeColor=#909090;fillColor=#F5AB50;sketch=1;" vertex="1" parent="WIyWlLk6GJQsqaUBKTNV-1">
          <mxGeometry x="430" y="540" width="280" height="60" as="geometry" />
        </mxCell>
        <mxCell id="pW2KVy_OPlrl6YSBeUSY-28" style="edgeStyle=orthogonalEdgeStyle;curved=0;rounded=1;sketch=1;orthogonalLoop=1;jettySize=auto;html=1;entryX=0.5;entryY=0;entryDx=0;entryDy=0;fontColor=#1A1A1A;strokeColor=#182E3E;exitX=0.5;exitY=1;exitDx=0;exitDy=0;" edge="1" parent="WIyWlLk6GJQsqaUBKTNV-1" source="pW2KVy_OPlrl6YSBeUSY-35" target="pW2KVy_OPlrl6YSBeUSY-30">
          <mxGeometry relative="1" as="geometry">
            <mxPoint x="893.5" y="240" as="sourcePoint" />
          </mxGeometry>
        </mxCell>
        <mxCell id="pW2KVy_OPlrl6YSBeUSY-29" style="edgeStyle=orthogonalEdgeStyle;curved=0;rounded=1;sketch=1;orthogonalLoop=1;jettySize=auto;html=1;entryX=0.5;entryY=0;entryDx=0;entryDy=0;fontColor=#1A1A1A;strokeColor=#182E3E;" edge="1" parent="WIyWlLk6GJQsqaUBKTNV-1" source="pW2KVy_OPlrl6YSBeUSY-30" target="pW2KVy_OPlrl6YSBeUSY-31">
          <mxGeometry relative="1" as="geometry" />
        </mxCell>
        <mxCell id="pW2KVy_OPlrl6YSBeUSY-30" value="选择性集成结果" style="shape=parallelogram;perimeter=parallelogramPerimeter;whiteSpace=wrap;html=1;fixedSize=1;rounded=0;sketch=1;fontColor=#1A1A1A;strokeColor=#909090;fillColor=#F5AB50;" vertex="1" parent="WIyWlLk6GJQsqaUBKTNV-1">
          <mxGeometry x="833.5" y="280" width="120" height="60" as="geometry" />
        </mxCell>
        <mxCell id="pW2KVy_OPlrl6YSBeUSY-31" value="结束" style="rounded=1;whiteSpace=wrap;html=1;fontSize=12;glass=0;strokeWidth=1;shadow=0;sketch=1;fillColor=#F5AB50;strokeColor=#909090;fontColor=#1A1A1A;" vertex="1" parent="WIyWlLk6GJQsqaUBKTNV-1">
          <mxGeometry x="853.5" y="380" width="80" height="40" as="geometry" />
        </mxCell>
        <mxCell id="pW2KVy_OPlrl6YSBeUSY-32" value="Part1&lt;br&gt;基分类器生成" style="text;html=1;strokeColor=none;fillColor=none;align=center;verticalAlign=middle;whiteSpace=wrap;rounded=0;dashed=1;sketch=1;fontColor=#1A1A1A;" vertex="1" parent="WIyWlLk6GJQsqaUBKTNV-1">
          <mxGeometry x="155" y="620" width="90" height="30" as="geometry" />
        </mxCell>
        <mxCell id="pW2KVy_OPlrl6YSBeUSY-33" value="Part2&lt;br&gt;基分类器选择" style="text;html=1;strokeColor=none;fillColor=none;align=center;verticalAlign=middle;whiteSpace=wrap;rounded=0;dashed=1;sketch=1;fontColor=#1A1A1A;" vertex="1" parent="WIyWlLk6GJQsqaUBKTNV-1">
          <mxGeometry x="525" y="620" width="90" height="30" as="geometry" />
        </mxCell>
        <mxCell id="pW2KVy_OPlrl6YSBeUSY-34" value="Part3&lt;br&gt;基分类器集成" style="text;html=1;strokeColor=none;fillColor=none;align=center;verticalAlign=middle;whiteSpace=wrap;rounded=0;dashed=1;sketch=1;fontColor=#1A1A1A;" vertex="1" parent="WIyWlLk6GJQsqaUBKTNV-1">
          <mxGeometry x="848.5" y="620" width="90" height="30" as="geometry" />
        </mxCell>
        <mxCell id="pW2KVy_OPlrl6YSBeUSY-35" value="通过多数投票法&lt;br&gt;集成M中个体的分类结果" style="shape=process;whiteSpace=wrap;html=1;backgroundOutline=1;rounded=0;sketch=1;fontColor=#1A1A1A;strokeColor=#909090;fillColor=#F5AB50;" vertex="1" parent="WIyWlLk6GJQsqaUBKTNV-1">
          <mxGeometry x="798.5" y="180" width="190" height="60" as="geometry" />
        </mxCell>
      </root>
    </mxGraphModel>
  </diagram>
</mxfile>
